<svg xmlns="http://www.w3.org/2000/svg" width="1156" height="650" viewBox="370 58 1920 1080" enable-background="new 370 58 1920 1080"><g fill="#fff"><path d="M439 76.1v29.1c0 1 .2 1.8.8 2.5.3.2.8.3 1.2.3.3 0 .7 0 1.2-.5.7-.5.8-1 .8-2.8v-28.6h2.8v29.4c0 .8 0 1.3-.3 2.2-.8 2.5-3.7 2.8-4.5 2.8-1.7 0-3.8-.8-4.5-2.5-.2-.7-.3-1.2-.3-2.7v-29.2h2.8zm15.4.2c.8 6.1 1.7 12.5 2.5 18.8l1.5 12.6c-.2-6.3-.3-12.6-.3-18.9v-12.5h2.5v33.9h-4.2c-1.5-10.5-2.8-20.9-4.3-31.7.2 4.3.2 8.8.2 13.3v18.4h-2.5v-33.9h4.6z"/><rect x="464.7" y="76.1" width="2.8" height="33.7"/><polygon points="479.4,76.3 479.4,78.4 475.9,78.4 475.9,110.2 473.1,110.2 473.1,78.4 469.7,78.4 469.7,76.3"/><path d="M487.5 81.2c0-1 0-1.7-.7-2.3-.2-.2-.5-.3-1.2-.3-.5 0-.8.2-1 .3-.7.5-.7 1.2-.8 2.2v11.3c0 1 0 1.8.8 2.5.5.3.8.3 1 .3s.5 0 1-.3c.8-.5.8-1.3.8-2.3l.1-11.4zm-3.6 20.5v3.3c0 .3-.2 1.2.2 2 .3 1 1.2 1.2 1.5 1.2l1-.2c.7-.5.8-1.3.8-2.2v-9.6c-.8.7-1.7 1.2-2.7 1.2-.5 0-1.8-.2-2.7-1.3-.8-1.2-.8-2.5-.8-3v-11.9c.2-2 .3-3.3 2-4.2 1-.5 2-.5 2.3-.5 1.7 0 2.8.7 3.2 1 1 .8 1.2 2 1.3 3.3v24.9c-.2 1.2-.2 1.8-.3 2.3-.5 1.2-1.5 2.3-4.2 2.3-1.2 0-1.8-.3-2.3-.5-1.7-.8-1.7-2.2-1.8-3.8v-4.3h2.5z"/><polygon points="510.8,76.1 510.8,78.4 505.8,78.4 505.8,91.1 510.3,91.1 510.3,93.4 505.8,93.4 505.8,109.8 503,109.8 503,76.1"/><rect x="513.6" y="76.1" width="2.8" height="33.7"/><polygon points="523.4,76.1 523.4,107.5 528.1,107.5 528.1,109.8 520.4,109.8 520.4,76.1"/><path d="M535.4 76.1c.8 6.3 1.5 12.8 2 19.3.5 4.5.7 9 1 13.5.3-3.8.5-7.8 1-11.8.3-3.3.7-6.8 1.2-10.1.5-3.7.8-7.1 1.2-10.8h5.2v33.8h-2.5v-32.9c-.5 2.8-.8 5.8-1.2 8.6-.5 4.2-1 8.5-1.3 12.6l-1.3 11.6h-3.8c-.5-4.8-1.2-9.6-1.5-14.3-.3-3.5-.7-7-1.2-10.5l-1-8v32.9h-2.7v-33.9h4.9zm18.1 24.6v4.8c0 .8 0 1.7.8 2.2.5.3.8.3 1 .3.3 0 .7-.2 1-.3.8-.5.8-1.3.8-2.2v-5.5c-.2-2.3-.5-2.8-1-3.8l-4.2-7.1c-.8-2-1.2-2.7-1.2-5 0-2.5-.2-3.5.2-4.7.3-1.3 1.3-3.3 4.5-3.3 2.5 0 3.7 1.3 4 2.5.3.7.3 1.7.3 2v4.3h-2.7v-4.3c-.2-1.3-.2-2.2-1.3-2.2-.2 0-.7 0-1 .3-.8.5-.8 1.3-.8 3.2 0 4 .2 4.3 1.2 6.3l4.2 7.3c.7 1.5.8 1.8.8 3.5v6.6c0 .3 0 1.2-.3 2-.8 2.5-3.7 2.7-4.3 2.7-.3 0-.7 0-1.3-.2-.5-.2-2.3-.7-3-2.5-.3-.7-.3-1.5-.3-2.5v-4.7l2.6.3z"/></g><g fill="#fff"><path d="M436.3 164.3v-11.6h4.3v11.5c0 3.3 1.7 5 4.3 5s4.3-1.7 4.3-5v-11.6h4.3v11.4c0 6.1-3.3 9.1-8.8 9.1-5.4 0-8.4-2.8-8.4-8.8z"/><polygon points="461.6,152.7 465.6,152.7 474.9,165.3 474.9,152.7 479.2,152.7 479.2,173.1 475.5,173.1 465.9,160.2 465.9,173.1 461.6,173.1"/><rect x="487.7" y="152.7" width="4.3" height="20.4"/><polygon points="505.6,156.8 499.5,156.8 499.5,152.7 515.9,152.7 515.9,156.8 509.9,156.8 509.9,173.1 505.6,173.1"/><path d="M532.5 159.3c0-1.8-1.3-3.2-3.5-3.2s-3.3 1.3-3.3 3.2 1.3 3 3.5 3c2.2.2 3.3-1.1 3.3-3zm-10.6 11.8l2.3-3.5c1.5 1.2 2.7 1.7 4.3 1.7 2.5 0 3.8-1.8 4-4.7-1 .8-2.3 1.3-4 1.3-4.3 0-7.1-2.5-7.1-6.6 0-4.2 3.2-7.1 7.6-7.1 2.7 0 4.2.7 5.8 2.2 1.5 1.5 2.3 3.7 2.3 7.6 0 6.6-3 11.1-8.6 11.1-2.9.4-4.9-.6-6.6-2zm35.9-8.1c0-5.8 4.5-10.6 10.5-10.6 3.7 0 5.8 1 7.8 2.8l-2.8 3.5c-1.5-1.3-2.8-2-5.2-2-3.2 0-5.6 2.8-5.6 6.3 0 3.8 2.5 6.5 6 6.5 1.7 0 3-.3 4.2-1.2v-3h-4.3v-3.8h8.6v8.8c-2 1.8-4.8 3.2-8.5 3.2-6.6 0-10.7-4.5-10.7-10.5zm37.9 1.7l-2.7-6.7-2.7 6.6h5.4zm-4.5-12.2h4l8.5 20.6h-4.5l-1.8-4.7h-8.5l-1.8 4.7h-4.5l8.6-20.6z"/><polygon points="609.6,152.7 614.3,152.7 619.6,161.3 624.8,152.7 629.6,152.7 629.6,173.1 625.1,173.1 625.1,159.8 619.6,168.5 619.4,168.5 614,159.8 614,173.1 609.6,173.1"/><polygon points="638.9,152.7 653.8,152.7 653.8,156.7 643.2,156.7 643.2,160.8 652.5,160.8 652.5,164.8 643.2,164.8 643.2,169.1 654,169.1 654,173.1 638.9,173.1"/><path d="M661.6 170.1l2.7-3.2c1.8 1.5 3.7 2.5 6 2.5 1.8 0 2.8-.7 2.8-2 0-1.2-.7-1.7-4-2.7-4-1-6.6-2.2-6.6-6.3 0-3.7 2.8-6.1 7-6.1 2.8 0 5.3 1 7.3 2.7l-2.3 3.3c-1.8-1.3-3.5-2-5.2-2-1.7 0-2.5.8-2.5 1.8 0 1.3.8 1.8 4.3 2.7 4 1.2 6.3 2.5 6.3 6.1 0 4-3 6.3-7.3 6.3-3.1.3-6.1-.9-8.5-3.1z"/></g><g fill="#fff"><path d="M438.5 300.9v-10l-2.2-.3v-2h8.5v2l-2.3.3v10.1c0 1.5.2 2.8.5 3.7.3 1 .7 1.7 1.2 2.2s1 .8 1.7 1.2c.7.2 1.3.3 2.2.3s1.5-.2 2-.5c.7-.3 1.2-.8 1.5-1.3.3-.7.7-1.5 1-2.5.2-1 .3-2.2.3-3.7v-9.5l-2.7-.3v-2h7.8v2l-2.5.3v9.5c0 1.8-.2 3.5-.7 4.7-.5 1.3-1 2.3-1.7 3.2-.7.8-1.5 1.3-2.5 1.7-1 .3-2 .5-3.2.5-1.7 0-3-.2-4.2-.7-1.2-.3-2-1-2.7-1.8-.7-.8-1.2-1.8-1.5-3-.5-1.1-.5-2.6-.5-4.1zm19.8 7.5l2.3-.5v-16.8l-2.2-.3v-2.2h6.1l8.6 14.5 1.5 3.7v-15.6l-2.5-.3v-2.2h7.3v2.2l-2.2.3v18.8h-4.2l-3.8-6.5c-1.3-2.2-2.7-4.3-3.8-6.5l-.8-1.3-1.3-2.8v15l2.8.5v1.7h-7.6v-1.7h-.2z"/><polygon points="480.4,308.4 483,307.9 483,290.8 480.5,290.6 480.5,288.6 489.3,288.6 489.3,290.6 487,290.8 487,307.9 489.5,308.4 489.5,310 480.4,310"/><polygon points="494,308.4 497.1,307.9 497.1,290.6 492.8,291.1 491.8,293.8 490.2,293.8 490.5,288.6 507.9,288.6 507.9,293.8 506.3,293.9 505.5,290.9 501.1,290.6 501.1,307.9 504.5,308.4 504.5,310 494,310"/><path d="M513.1 308.2c.8-.5 1.5-1 2.2-1.7.7-.7 1.2-1.3 1.7-2s1-1.5 1.3-2.2c.3-.8.7-1.5.8-2.3.2-.8.3-1.5.5-2.2 0-.7.2-1.3.2-1.8v-1.8c0-.7-.2-1.2-.3-1.7-.2-.5-.3-1-.7-1.3-.3-.3-.7-.7-1.2-1-.5-.2-1-.3-1.7-.3-.5 0-1 .2-1.5.3-.5.3-.8.7-1 1-.3.5-.5 1-.7 1.5-.2.5-.2 1.2-.2 1.7 0 .8.2 1.7.3 2.3.2.7.5 1.2.8 1.5.3.5.7.7 1 1 .3.2.8.3 1.2.3h.5s.3 0 .5-.2l.5-.2s.3-.2.5-.3l.7 1.3c-.2.2-.3.5-.7.7-.3.2-.5.5-1 .7-.3.2-.7.3-1.2.3-.3.2-.8.2-1.3.2-1 0-1.8-.2-2.5-.7-.7-.3-1.3-.8-1.7-1.5-.5-.7-.8-1.3-1-2-.2-.8-.3-1.5-.3-2.3 0-1.2.2-2.2.5-3 .3-1 .8-1.8 1.5-2.5s1.5-1.3 2.3-1.7c1-.3 2-.7 3.2-.7 1 0 2 .2 2.8.7.8.5 1.7 1 2.2 1.7.7.7 1.2 1.5 1.5 2.5.3 1 .5 2 .5 3.2 0 1.3-.2 2.7-.5 4-.3 1.3-.8 2.5-1.3 3.5-.5 1.2-1.3 2.2-2 3-.8.8-1.7 1.7-2.5 2.3-1 .7-1.8 1.3-2.8 1.7-1 .5-2 .8-3 1l-.7-1.7 2.6-1.3z"/><polygon points="533.7,308.4 536.9,307.9 536.9,290.6 532.5,291.1 531.5,293.8 529.9,293.8 530.2,288.6 547.7,288.6 547.7,293.8 546.2,293.9 545.2,290.9 540.8,290.6 540.8,307.9 544.2,308.4 544.2,310 533.7,310"/><path d="M555.5 300.4v-1.5s0-1-.2-1.5-.3-.8-.5-1.2c-.3-.3-.7-.5-1.2-.7-.5-.2-1-.2-1.7.2-.7.2-1.3.7-1.8 1.5s-.8 1.8-1 3.2h6.4zm-10.2 1.8c0-1.2.2-2.3.5-3.3s1-2 1.7-2.7c.7-.8 1.5-1.3 2.5-1.8s2.2-.7 3.5-.7c1 0 1.8.2 2.5.3.7.3 1.3.7 1.8 1.2s.8 1.2 1.2 1.8c.3.7.3 1.5.5 2.5v1.5l-.2 1.3h-10c0 1 .2 1.8.5 2.5s.7 1.2 1 1.7 1 .8 1.5 1c.5.2 1.2.3 1.8.3h1.2l1.2-.2c.3 0 .7-.2 1.2-.3.3-.2.7-.3 1-.3l.7 1.5c-.3.3-.7.5-1.2.8l-1.5.7c-.5.2-1.2.3-1.8.3-.7.2-1.2.2-1.8.2-1.2 0-2.3-.2-3.2-.7-1-.3-1.7-1-2.3-1.7s-1.2-1.5-1.5-2.5c-.6-.9-.8-2-.8-3.4zm15.5.2c0-1.3.2-2.5.7-3.7.5-1 1-2 1.8-2.7.8-.8 1.7-1.3 2.7-1.7 1-.3 2.2-.7 3.2-.7h1.3c.5 0 .8 0 1.3.2l1.2.2c.3.2.7.2.8.3v4h-2l-1-2.3c-.3-.2-.7-.3-1-.3l-1-.2c-.5 0-1 .2-1.5.3-.5.2-.8.7-1.3 1-.3.5-.7 1-.8 1.7-.2.7-.3 1.5-.3 2.3 0 1.2.2 2.2.3 3.2.3.8.7 1.5 1.2 2.2.5.5 1 1 1.7 1.2.7.3 1.2.3 1.8.3.8 0 1.5-.2 2.2-.3.7-.2 1.2-.3 1.5-.7l.7 1.7c-.7.7-1.5 1-2.5 1.3-1 .3-2.2.5-3.5.5-1.2 0-2.2-.2-3-.7-.8-.3-1.7-1-2.2-1.7-.7-.7-1-1.5-1.3-2.5-.8-.6-1-1.7-1-2.9zm14.6 6l2-.3v-17.8l-2.3-.8v-1.7l5.5-.8.8.3v6.6l-.2 1.8 1.3-1 1.3-.7c.5-.2 1-.3 1.3-.3l1.2-.2c1 0 1.8.2 2.3.5.7.3 1 .8 1.3 1.5.3.7.5 1.3.7 2.3.2 1 .2 2 .2 3.2v6.8l2 .3v1.7h-8v-1.7l2.2-.3v-8.1s-.2-1.3-.3-1.8c-.2-.5-.5-.8-.8-1.2-.3-.3-.8-.3-1.5-.3-.5 0-1 0-1.5.2s-1 .3-1.3.7v10.6l1.7.3v1.7h-7.6l-.3-1.5zm18.5 0l1.8-.3v-10l-2-1.7v-1.2l4.5-1.5.8.3v2l1-.8c.3-.3.8-.5 1.2-.7l1.3-.5c.5-.2 1-.2 1.3-.3h1.2c.8 0 1.3.2 2 .5.5.3 1 .7 1.3 1.3.3.5.5 1.2.7 2 .2.8.2 1.7.2 2.7v7.8l2 .3v1.7h-8v-1.7l2-.3v-7.1c0-.8 0-1.5-.2-2s-.3-1-.5-1.3c-.2-.3-.5-.7-1-.7-.3-.2-1-.2-1.5-.2h-.5s-.5.2-.7.2l-.7.3-.7.5v10.5l1.8.3v1.7h-7.6l.3-1.8zm25.4 0c.8 0 1.3-.2 1.8-.5s.8-.8 1.2-1.3c.3-.7.5-1.3.5-2 .2-.8.2-1.7.2-2.5s0-1.5-.2-2.3c-.2-.8-.3-1.5-.7-2-.3-.7-.7-1.2-1.2-1.5-.5-.3-1-.5-1.7-.5s-1.3.2-1.8.5-.8.8-1.2 1.3c-.3.5-.5 1.2-.7 2-.2.7-.2 1.5-.2 2.3 0 .5 0 1 .2 1.5 0 .5.2 1 .3 1.5.2.5.3 1 .5 1.3.2.5.5.8.7 1.2.3.3.7.7 1 .8.4.2.8.2 1.3.2zm-7.8-6.5c0-1.3.3-2.5.7-3.7.5-1 1-1.8 1.8-2.5s1.7-1.2 2.7-1.5c1-.3 2-.5 3-.5 1.2 0 2.3.2 3.3.5s1.7.8 2.3 1.7c.7.7 1.2 1.5 1.5 2.5.3 1 .5 2.2.5 3.3 0 1.3-.2 2.7-.7 3.7-.5 1-1 2-1.7 2.7s-1.5 1.3-2.5 1.7c-1 .3-2 .5-3 .5-1.3 0-2.5-.2-3.5-.7-1-.5-1.8-1-2.5-1.8s-1.2-1.7-1.3-2.7c-.6-1-.6-2-.6-3.2z"/><polygon points="626.6,308.4 628.6,308 628.6,290.3 626.6,289.4 626.6,287.8 631.7,286.9 632.4,287.3 632.4,308 634.9,308.4 634.9,310 626.6,310"/><path d="M642.7 308.4c.8 0 1.3-.2 1.8-.5s.8-.8 1.2-1.3c.3-.7.5-1.3.5-2 .2-.8.2-1.7.2-2.5s0-1.5-.2-2.3c-.2-.8-.3-1.5-.7-2-.3-.7-.7-1.2-1.2-1.5-.5-.3-1-.5-1.7-.5s-1.3.2-1.8.5-.8.8-1.2 1.3-.5 1.2-.7 2c-.2.7-.2 1.5-.2 2.3 0 .5 0 1 .2 1.5 0 .5.2 1 .3 1.5.2.5.3 1 .5 1.3.2.5.5.8.7 1.2.3.3.7.7 1 .8s1 .2 1.3.2zm-7.8-6.5c0-1.3.3-2.5.7-3.7.5-1 1-1.8 1.8-2.5s1.7-1.2 2.7-1.5c1-.3 2-.5 3-.5 1.2 0 2.3.2 3.3.5s1.7.8 2.3 1.7c.7.7 1.2 1.5 1.5 2.5.3 1 .5 2.2.5 3.3 0 1.3-.2 2.7-.7 3.7-.5 1-1 2-1.7 2.7s-1.5 1.3-2.5 1.7c-1 .3-2 .5-3 .5-1.3 0-2.5-.2-3.5-.7s-1.8-1-2.5-1.8-1.2-1.7-1.3-2.7c-.4-1-.6-2-.6-3.2zm23.4.7c.5 0 .8-.2 1.2-.3s.7-.5.8-.7c.2-.3.3-.7.5-1.2l.2-1.3c0-1.2-.2-2.2-.7-2.8-.5-.7-1.2-1-2.2-1-.3 0-.7 0-1 .2-.3.2-.7.3-.8.5-.3.2-.5.5-.7 1-.2.3-.2.8-.2 1.5s0 1.2.2 1.7.3 1 .5 1.3c.2.3.5.7 1 .8.1.3.6.3 1.2.3zm-3.1 7.3l-.3 1c0 .3-.2.8-.2 1.5s.2 1.2.3 1.5c.2.3.5.8.8 1 .3.3.8.5 1.3.5.5.2 1 .2 1.5.2 1.3 0 2.3-.3 3-.7.7-.5 1-1.2 1-2.2 0-.3 0-.7-.2-1-.2-.3-.3-.7-.5-.8-.3-.3-.7-.5-1.2-.7-.5-.2-1.3-.3-2.2-.3h-3.3zm-4.2 3.5c0-.5.2-1 .3-1.3.2-.3.3-.8.7-1.2.3-.3.5-.7.8-.8.3-.3.7-.5.8-.7-.3-.2-.7-.3-.8-.5-.2-.2-.3-.3-.5-.7-.2-.2-.2-.5-.2-.7v-.7c0-.2 0-.5.2-.7l.3-.8s.3-.5.5-.8l.7-.8c-.8-.5-1.5-1-1.8-1.7-.5-.7-.7-1.7-.7-2.7 0-1 .2-1.8.7-2.5.3-.7 1-1.3 1.5-1.8.7-.5 1.3-.8 2.2-1 .8-.2 1.7-.3 2.5-.3 1 0 1.8 0 2.7.3.8.2 1.5.7 2.2 1.2.2-.3.5-.5.8-.7.3-.2.8-.3 1.5-.3h1.7v2.8h-2.8c.2.3.2.7.2 1v1c0 1-.2 1.8-.5 2.5s-.8 1.3-1.5 1.8-1.3.8-2.2 1-1.7.3-2.7.3c-.8 0-1.7-.2-2.3-.3v1c0 .3 0 .7.2.8 0 .2.2.3.5.5s.7.2 1.2.3h2.2c1.3 0 2.5.2 3.5.3.8.3 1.7.7 2.2 1 .5.5.8 1 1.2 1.5.2.7.3 1.2.3 1.8 0 .8-.2 1.5-.5 2.3-.3.7-.8 1.3-1.5 1.8s-1.5 1-2.5 1.2c-1 .3-2.2.5-3.5.5-1 0-2-.2-2.8-.2-.8-.2-1.7-.5-2.3-.8-.7-.3-1.2-.8-1.5-1.3-.8-.3-1-1-1-1.6zm20.1 1h1s.5 0 .8-.2c.3-.2.7-.3 1-.7.3-.3.7-.8 1-1.3.3-.7.7-1.3.8-2.3h-.7l-5.5-13.5-1.3-.3v-2.2h7.1v2.2l-1.5.3 2.8 8.5.5 2.2.7-2.2 2.7-8.5-2-.3v-2.2h6.5v2.2l-1.5.3-1.7 4.7-1.3 3.5-1 2.5-.7 1.7-.5 1.2-.3.7c-.3 1-.8 2-1.2 2.8-.3.8-.8 1.5-1.2 2-.5.5-1 1-1.5 1.3-.5.3-1.2.5-1.8.5h-2l-.5-.2v-3l1.3.3z"/></g><path fill="#fff" d="M450.3 237.1c0 4-3.2 7.1-7 7.1s-7-3.2-7-7.1v-15.8c0-.3.3-.7.7-.7h.8c.3 0 .7.3.7.7v15.8c0 2.7 2.2 5 4.8 5 2.8 0 4.8-2.3 4.8-5v-15.8c0-.3.3-.7.7-.7h.8c.3 0 .7.3.7.7v15.8zm17.6 7c-.3 0-.5-.2-.8-.5l-8.5-19.1c0-.2-.3-.2-.3 0v18.9c0 .3-.3.7-.7.7h-.7c-.3 0-.7-.3-.7-.7v-21.9c0-.3.3-.7.7-.7h1.8c.3 0 .5.2.7.5l8.5 18.9c0 .2.3.2.3 0v-18.8c0-.3.3-.7.7-.7h.7c.3 0 .7.3.7.7v21.9c0 .3-.3.7-.7.7h-1.7v.1zm11.3-.7c0 .3-.3.7-.7.7h-.8c-.3 0-.7-.3-.7-.7v-21.9c0-.3.3-.7.7-.7h.8c.3 0 .7.3.7.7v21.9zm12-20.3v20.1c0 .3-.3.7-.7.7h-.8c-.3 0-.7-.3-.7-.7v-20.1c0-.2-.2-.3-.3-.3h-4.8c-.3 0-.7-.3-.7-.7v-.8c0-.3.3-.7.7-.7h12.3c.3 0 .7.3.7.7v.8c0 .3-.3.7-.7.7h-4.8c-.1 0-.2.2-.2.3zm14.8-.6c-3 0-4.2 2.3-4.7 4.7-.2.7 0 1.3 0 1.8.3 2.3 1.7 4.7 4.7 4.7 2.8 0 4.3-2 4.7-4.7v-1.8c-.4-2.1-1.6-4.7-4.7-4.7zm4.8 14.9c.2-.8.2-2.3.2-3 0-.3-.3-.5-.7-.2-.7.5-2 1.7-4.3 1.7-3.7 0-6.3-3-6.6-6.8v-1.7c.2-3.8 3-6.8 6.6-6.8 3.8 0 6.3 3 6.6 7 .3 2.7.3 7 0 9.8-.7 4.5-2.8 7.1-6.6 7.1-3.5 0-6.6-2.8-6.6-6.3 0-.3.3-.7.7-.7h.7c.3 0 .7.3.7.7 0 2.3 2.2 4.3 4.5 4.3 2.8-.2 4.4-2.2 4.8-5.1zm19.4-14.6c-.2 0-.3.2-.3.3v18.3c0 .2.2.3.3.3h4.2c3.5 0 4.8-2.7 5-4.5.3-2.7.3-7.3 0-10-.3-2.5-2-4.5-5-4.5h-4.2zm4.2-2c4.3 0 6.6 3 7.1 6.6.3 2.7.3 7.3 0 10-.5 4.3-3.3 6.6-7.1 6.6h-5.8c-.3 0-.7-.3-.7-.7v-21.9c0-.3.3-.7.7-.7h5.8v.1zm15.6 22.6c0 .3-.3.7-.7.7h-.8c-.3 0-.7-.3-.7-.7v-21.9c0-.3.3-.7.7-.7h.8c.3 0 .7.3.7.7v21.9zm18.8-9.6c0-.2-.2-.3-.3-.3h-4c-.3 0-.7-.3-.7-.7v-.8c0-.3.3-.7.7-.7h5.6c.3 0 .7.3.7.7v5.3c0 4.3-3.3 7-7.1 7s-6.6-2.7-7.1-7c-.3-2.7-.3-7.3 0-10 .5-3.7 3-7 7.1-7 4.3 0 7.1 3.2 7.1 7v.2c0 .3-.3.7-.7.7h-.8c-.3 0-.7-.3-.7-.7v-.2c0-2.8-2-4.8-5-4.8s-4.7 2.3-5 4.8c-.3 2.7-.3 7.3 0 10 .3 2 1.5 4.8 5 4.8s5.2-2.8 5.2-4.8v-3.5zm10.3 9.6c0 .3-.3.7-.7.7h-.8c-.3 0-.7-.3-.7-.7v-21.9c0-.3.3-.7.7-.7h.8c.3 0 .7.3.7.7v21.9zm12.6-20.3v20.1c0 .3-.3.7-.7.7h-.8c-.3 0-.7-.3-.7-.7v-20.1c0-.2-.2-.3-.3-.3h-4.8c-.3 0-.7-.3-.7-.7v-.8c0-.3.3-.7.7-.7h12.3c.3 0 .7.3.7.7v.8c0 .3-.3.7-.7.7h-4.8s-.2.2-.2.3zm17.3 11.8l-3-11.3c0-.2 0-.2-.2-.2 0 0-.2 0-.2.2l-3 11.3c0 .3 0 .3.3.3h5.6c.5.2.6.1.5-.3zm.8 3c-.2-.3-.3-.5-.7-.5h-6.6c-.3 0-.5.2-.7.5l-1.7 5.6c0 .3-.3.5-.7.5h-.8c-.5 0-.7-.3-.7-.7l6.1-22.1c0-.3.3-.5.7-.5h1.7c.3 0 .5.2.7.5l6.1 22.1c0 .3-.2.7-.7.7h-.8c-.3 0-.5-.2-.7-.5l-1.2-5.6zm10 3.7c0 .2.2.3.3.3h8c.3 0 .7.3.7.7v.8c0 .3-.3.7-.7.7h-9.6c-.3 0-.7-.3-.7-.7v-21.9c0-.3.3-.7.7-.7h.8c.3 0 .7.3.7.7l-.2 20.1z"/><path fill="#fff" d="M994.9 278.6h-5.5v-13.3h-2.8v-4.7h2.8v-2.8c0-3.7 1.5-6 6-6h3.7v4.7h-2.3c-1.7 0-1.8.7-1.8 1.8v2.3h4.2l-.5 4.7h-3.7v13.3z"/><path fill="#fff" d="M1089.8 257.7h-3.7v3.7h-1.8v-3.7h-3.7v-1.8h3.7v-3.7h1.8v3.7h3.7v1.8zm-10.3 15.1c0 2.7-2.5 6-8.8 6-4.7 0-8.5-2-8.5-5.3 0-2.5 1.7-5.8 9.1-5.8-1.2-1-1.3-2.2-.7-3.7-4.5 0-6.6-2.7-6.6-6s2.5-6.1 7.3-6.1h7.8l-1.8 1.8h-2c1.5.8 2.2 2.5 2.2 4.5 0 1.7-1 3.2-2.3 4.2-2.5 1.8-1.8 3 .7 4.8 2.8 1.8 3.6 3.3 3.6 5.6zm-5-14.4c-.3-2.8-2.2-5.2-4.3-5.2s-3.5 2-3.2 4.8c.3 2.8 2.3 4.8 4.5 4.8s3.4-1.8 3-4.4zm2.2 14.6c0-2.3-2.2-4.5-5.6-4.5-3.2 0-5.8 2-5.8 4.3s2.3 4.5 5.5 4.5c3.9 0 5.9-1.8 5.9-4.3z"/><path fill="#fff" d="M924.3 256.4c-1 .5-2.2.8-3.3 1 1.2-.7 2.2-1.8 2.7-3.3-1.2.7-2.5 1.2-3.8 1.5-1-1.2-2.7-1.8-4.3-1.8-3.8 0-6.6 3.5-5.8 7.3-5-.2-9.3-2.7-12.1-6.1-1.5 2.7-.8 6.1 1.8 8-1 0-1.8-.3-2.7-.7 0 2.8 1.8 5.3 4.8 5.8-.8.2-1.8.3-2.7.2.8 2.3 3 4 5.5 4.2-2.5 2-5.6 2.8-8.8 2.5 2.7 1.7 5.6 2.7 9.1 2.7 11 0 17.3-9.3 16.8-17.6 1-1.4 2-2.6 2.8-3.7z"/><path fill="#797979" d="M994.9 204h-5.5v-13.3h-2.8v-4.7h2.8v-2.8c0-3.7 1.5-6 6-6h3.7v4.7h-2.3c-1.7 0-1.8.7-1.8 1.8v2.3h4.2l-.5 4.7h-3.7v13.3z"/><path fill="#797979" d="M1089.8 183.1h-3.7v3.7h-1.8v-3.7h-3.7v-1.8h3.7v-3.7h1.8v3.7h3.7v1.8zm-10.3 15.1c0 2.7-2.5 6-8.8 6-4.7 0-8.5-2-8.5-5.3 0-2.5 1.7-5.8 9.1-5.8-1.2-1-1.3-2.2-.7-3.7-4.5 0-6.6-2.7-6.6-6s2.5-6.1 7.3-6.1h7.8l-1.8 1.8h-2c1.5.8 2.2 2.5 2.2 4.5 0 1.7-1 3.2-2.3 4.2-2.5 1.8-1.8 3 .7 4.8 2.8 1.8 3.6 3.3 3.6 5.6zm-5-14.4c-.3-2.8-2.2-5.2-4.3-5.2s-3.5 2-3.2 4.8c.3 2.8 2.3 4.8 4.5 4.8s3.4-1.8 3-4.4zm2.2 14.6c0-2.3-2.2-4.5-5.6-4.5-3.2 0-5.8 2-5.8 4.3s2.3 4.5 5.5 4.5c3.9 0 5.9-1.8 5.9-4.3z"/><path fill="#797979" d="M924.3 181.8c-1 .5-2.2.8-3.3 1 1.2-.7 2.2-1.8 2.7-3.3-1.2.7-2.5 1.2-3.8 1.5-1-1.2-2.7-1.8-4.3-1.8-3.8 0-6.6 3.5-5.8 7.3-5-.2-9.3-2.7-12.1-6.1-1.5 2.7-.8 6.1 1.8 8-1 0-1.8-.3-2.7-.7 0 2.8 1.8 5.3 4.8 5.8-.8.2-1.8.3-2.7.2.8 2.3 3 4 5.5 4.2-2.5 2-5.6 2.8-8.8 2.5 2.7 1.7 5.6 2.7 9.1 2.7 11 0 17.3-9.3 16.8-17.6 1-1.4 2-2.6 2.8-3.7z"/><path d="M995.4 364.9h-6.8v-16.4h-3.5v-5.8h3.5v-3.5c0-4.5 1.8-7.5 7.5-7.5h4.5v5.8h-2.8c-2 0-2.3.8-2.3 2.3v2.8h5.2l-.7 5.8h-4.5v16.5h-.1zM1094 338.5h-4.8v4.8h-2.3v-4.8h-4.8v-2.3h4.8v-4.8h2.3v4.8h4.8v2.3zm-13.5 19.6c0 3.5-3.2 7.8-11.5 7.8-6 0-11-2.7-11-6.8 0-3.2 2.2-7.5 11.8-7.5-1.5-1.3-1.7-2.8-.8-4.8-5.8 0-8.6-3.5-8.6-7.8s3.2-8 9.5-8h10.1l-2.3 2.3h-2.7c2 1 2.8 3.2 2.8 5.8 0 2.2-1.3 4.2-3 5.3-3.2 2.3-2.3 3.8.8 6.3 3.9 2.5 4.9 4.4 4.9 7.4zm-6.5-18.6c-.5-3.7-2.8-6.6-5.6-6.6s-4.5 2.7-4.2 6.3c.3 3.7 3 6.3 5.8 6.3 3-.2 4.5-2.7 4-6zm2.9 18.9c0-3-2.8-5.8-7.3-5.8-4.2 0-7.5 2.7-7.5 5.6s3 5.8 7.1 5.8c5.2-.1 7.7-2.4 7.7-5.6zM927 337.8c-1.2.7-2.5 1-4 1.2 1.3-.8 2.5-2.2 3.2-4-1.3.8-3 1.3-4.5 1.8-1.2-1.3-3.2-2.2-5.2-2.2-4.5 0-8 4.2-7 8.6-6-.2-11.1-3.2-14.5-7.3-1.8 3.2-1 7.3 2.2 9.5-1.2 0-2.2-.3-3.2-.8 0 3.3 2.2 6.3 5.6 7-1 .2-2.2.3-3.2.2 1 2.8 3.5 4.8 6.5 5-3 2.3-6.6 3.3-10.5 3 3.2 2 6.6 3.2 10.8 3.2 13 0 20.6-11.1 19.9-20.9 1.7-1.7 2.9-3 3.9-4.3z"/><g fill="#fff"><path d="M373.2 682.1v-15.6l-3.3-.5v-3h13.3v3l-3.7.5v15.8c0 2.3.3 4.3.7 5.6.5 1.5 1 2.7 1.8 3.5.8.8 1.7 1.3 2.7 1.7 1 .3 2.2.5 3.3.5 1.2 0 2.3-.2 3.3-.7 1-.5 1.8-1.2 2.3-2.2.5-1 1.2-2.3 1.5-3.8.3-1.5.5-3.3.5-5.5v-14.8l-4.2-.5v-3h12.3v3l-3.8.5v14.8c0 3-.3 5.3-1 7.3s-1.5 3.5-2.7 4.8c-1.2 1.2-2.5 2-4 2.7-1.5.5-3.2.8-5 .8-2.5 0-4.7-.3-6.5-.8-1.8-.7-3.2-1.5-4.3-2.7-1.2-1.2-2-2.7-2.5-4.7-.5-2.3-.7-4.4-.7-6.7zm31.6 11.4l3.7-.8v-25.8l-3.5-.5v-3.3h9.6l13.6 22.3 2.3 5.6v-24.3l-3.8-.5v-3.2h11.5v3.3l-3.5.5v29.2h-6.7l-6.1-10-6.1-10-1.2-2-2-4.3v23.1l4.3.8v2.5h-12.1v-2.6z"/><polygon points="439.7,693.5 443.8,692.7 443.8,666.4 439.8,665.9 439.8,663 453.9,663 453.9,665.9 450.1,666.4 450.1,692.7 454.3,693.5 454.3,696 439.7,696"/><polygon points="461.1,693.5 466.2,692.7 466.2,666.1 459.4,666.8 457.8,670.9 455.1,671.1 455.6,663 483.4,663 483.2,670.9 480.9,671.3 479.4,666.6 472.6,666.1 472.6,692.7 477.7,693.5 477.7,696 461.1,696"/><path d="M491.5 693.4c1.2-.8 2.3-1.7 3.3-2.7s2-2 2.7-3.2c.8-1.2 1.5-2.2 2-3.3.5-1.2 1-2.3 1.3-3.5.3-1.2.5-2.3.7-3.3.2-1 .2-2 .2-3s0-2-.2-3c0-1-.3-1.8-.5-2.7-.3-.8-.7-1.5-1.2-2.2-.5-.7-1-1.2-1.7-1.5-.7-.3-1.5-.5-2.5-.5-.8 0-1.7.2-2.3.7-.7.3-1.2 1-1.7 1.7s-.8 1.3-1 2.3c-.2.8-.3 1.7-.3 2.7 0 1.3.2 2.5.5 3.5s.7 1.8 1.2 2.5 1 1.2 1.7 1.3c.7.3 1.2.5 1.8.5h.8l.8-.2c.3 0 .7-.2.8-.3.3-.2.5-.2.7-.3l1 2-1 1.2c-.5.3-.8.7-1.5.8-.5.3-1.2.5-1.8.7-.7.2-1.3.2-2 .2-1.5 0-2.8-.3-3.8-1-1.2-.7-2-1.3-2.8-2.3-.7-1-1.3-2-1.7-3.2-.3-1.2-.5-2.3-.5-3.5 0-1.7.3-3.3.8-4.7.5-1.5 1.3-2.7 2.5-3.8 1-1 2.3-2 3.8-2.5 1.5-.7 3.2-1 5-1 1.7 0 3.2.3 4.7 1 1.3.7 2.5 1.5 3.5 2.7 1 1.2 1.8 2.5 2.3 4 .5 1.5.8 3.2.8 4.8 0 2.2-.3 4.2-.8 6.1-.5 2-1.3 3.8-2.2 5.5-.8 1.7-2 3.2-3.3 4.7-1.3 1.3-2.7 2.7-4 3.7-1.5 1-3 2-4.5 2.7-1.5.7-3.2 1.2-4.7 1.5l-1-2.5c1.6-1.3 2.9-2 4.1-2.6z"/><polygon points="524.1,693.5 529.2,692.7 529.2,666.1 522.4,666.8 520.7,670.9 518.1,671.1 518.6,663 546.2,663 546.2,670.9 543.8,671.3 542.3,666.6 535.5,666.1 535.5,692.7 540.7,693.5 540.7,696 524.1,696"/><path d="M558.8 681.2c0-.7 0-1.5.2-2.3 0-.8 0-1.5-.2-2.2-.2-.7-.5-1.3-.8-1.8-.3-.5-1-.8-1.8-1-.8-.2-1.7-.2-2.5.2-1.2.3-2 1.2-2.8 2.3-.8 1.2-1.3 2.8-1.5 4.8h9.4zm-16.3 3c0-1.8.3-3.7.8-5.2s1.5-3 2.7-4.2c1.2-1.2 2.5-2.2 4.2-2.8 1.7-.7 3.3-1 5.3-1 1.5 0 3 .2 4.2.7 1.2.5 2.2 1 3 1.8.8.8 1.3 1.8 1.8 2.8.3 1.2.7 2.3.7 3.8v2.5l-.2 1.8h-15.8v.3c.2 1.5.3 2.8.8 3.8s1 1.8 1.7 2.7c.7.7 1.5 1.2 2.3 1.5s1.8.5 2.8.5c.5 0 1.2 0 1.7-.2.7 0 1.2-.2 1.8-.3.7-.2 1.2-.3 1.7-.5s1-.3 1.5-.7l1 2.5c-.5.3-1.2.8-1.8 1.2s-1.5.7-2.5.8c-.8.2-1.8.5-2.8.5-1 .2-2 .2-2.8.2-2 0-3.7-.3-5.2-.8-1.5-.7-2.7-1.3-3.7-2.5-1-1-1.8-2.3-2.3-3.8-.7-1.7-.9-3.6-.9-5.4zm24.8.2c0-2 .3-4 1-5.6.7-1.7 1.7-3 2.8-4.2 1.2-1.2 2.7-2 4.2-2.7 1.7-.7 3.3-1 5.2-1h2.2l2 .2 1.8.3c.5.2 1 .3 1.3.5v6.1h-3.2l-1.5-3.5c-.5-.3-1-.5-1.5-.7-.5-.2-1-.2-1.5-.2-.8 0-1.7.2-2.3.5-.8.3-1.5 1-2 1.7s-1 1.7-1.3 2.7c-.3 1-.5 2.3-.5 3.7 0 1.8.2 3.5.7 4.8.5 1.3 1 2.3 1.8 3.3.8.8 1.7 1.5 2.5 1.8 1 .3 1.8.7 2.8.7 1.3 0 2.5-.2 3.5-.3 1-.3 1.8-.7 2.5-1l1 2.5c-1 1-2.5 1.7-4 2-1.7.5-3.5.7-5.5.7-1.8 0-3.5-.3-4.8-1-1.3-.7-2.7-1.5-3.5-2.5-1-1-1.7-2.3-2.2-3.8-1.4-1.5-1.5-3.2-1.5-5zm22.9 9.1l3.2-.5v-27.6l-3.8-1.2v-2.7l8.6-1.2 1.3.5v10.1l-.3 3 2-1.5 2.2-1 2.2-.5c.7-.2 1.3-.2 1.8-.2 1.5 0 2.8.3 3.7.8 1 .5 1.7 1.2 2.2 2.2.5 1 .8 2.2 1 3.7.2 1.5.3 3.2.3 5v10.6l3.2.5v2.5h-12.8v-2.5l3.3-.5v-9c0-1.3 0-2.7-.2-3.7 0-1-.2-2-.5-2.7-.3-.7-.7-1.3-1.3-1.7s-1.5-.7-2.5-.7c-.8 0-1.5.2-2.3.3-.8.2-1.5.5-2.2 1v16.4l2.7.5v2.5h-11.6l-.2-2.4zm29.2 0l2.8-.5v-15.3l-3-2.7v-1.8l7.1-2.3 1.3.5v3.2l1.5-1.2 2-1s1.5-.7 2.2-.8l2.2-.5s1.3-.2 2 0c1.2 0 2.3.3 3.2.8.8.5 1.5 1.2 2 2s.8 1.8 1 3.2c.2 1.2.3 2.7.3 4.2v12l3.3.5v2.5h-12.6v-2.5l3.2-.5v-11c0-1.3-.2-2.3-.2-3.2-.2-.8-.3-1.5-.8-2-.3-.5-.8-.8-1.5-1.2-.7-.2-1.5-.3-2.5-.3-.3 0-.5 0-1 .2-.3 0-.7.2-1 .3-.3.2-.7.3-1.2.5l-1 .7v16.1l3 .5v2.5h-12v-2.8l-.3-.1zm40.4.2c1.2 0 2.2-.2 2.8-.8.7-.5 1.3-1.2 1.7-2.2.5-1 .7-2 .8-3.2.2-1.2.2-2.5.2-4 0-1.2-.2-2.5-.3-3.7-.2-1.2-.5-2.2-1-3.2s-1-1.7-1.7-2.3c-.7-.5-1.7-.8-2.7-.8-1.2 0-2 .2-2.8.8-.8.5-1.3 1.2-1.8 2s-.8 1.8-1 3c-.2 1.2-.3 2.3-.3 3.7 0 .8 0 1.5.2 2.3.2.8.2 1.7.5 2.3.2.8.5 1.5.8 2.2.3.7.7 1.3 1.2 1.8s1 1 1.5 1.3c.6.6 1.1.8 1.9.8zm-12.6-10.1c0-2.2.3-4 1.2-5.5.7-1.7 1.7-3 2.8-4 1.2-1 2.5-1.8 4.2-2.3 1.5-.5 3.2-.8 4.8-.8 2 0 3.7.3 5.2.8s2.8 1.3 3.8 2.5c1 1 1.8 2.3 2.3 4 .5 1.5.8 3.3.8 5.2 0 2.2-.3 4-1 5.6s-1.7 3-2.8 4.2c-1.2 1.2-2.5 2-4 2.7-1.5.7-3.2.8-4.8.8-2.2 0-4-.3-5.6-1-1.5-.7-2.8-1.7-3.8-2.8-1-1.2-1.7-2.5-2.2-4.2-.6-1.8-.9-3.4-.9-5.2z"/><polygon points="671.4,693.5 674.4,693 674.4,665.4 671.3,664.3 671.3,661.6 679.6,660.5 680.6,661 680.6,693 684.4,693.5 684.4,696 671.4,696"/><path d="M697 693.7c1.2 0 2.2-.2 2.8-.8.8-.5 1.3-1.2 1.8-2.2.3-1 .7-2 .8-3.2.2-1.2.2-2.5.2-4 0-1.2-.2-2.5-.3-3.7s-.5-2.2-1-3.2-1-1.7-1.7-2.3c-.7-.5-1.7-.8-2.7-.8-1.2 0-2 .2-2.8.8-.8.5-1.3 1.2-1.8 2s-.8 1.8-1 3c-.2 1.2-.3 2.3-.3 3.7 0 .8 0 1.5.2 2.3s.2 1.7.5 2.3c.2.8.5 1.5.8 2.2.3.7.7 1.3 1.2 1.8s1 1 1.5 1.3c.5.6 1.2.8 1.8.8zm-12.4-10.1c0-2.2.3-4 1.2-5.5.7-1.7 1.7-3 2.8-4 1.2-1 2.5-1.8 4.2-2.3 1.5-.5 3.2-.8 4.8-.8 2 0 3.7.3 5.2.8s2.8 1.3 3.8 2.5c1 1 1.8 2.3 2.3 4 .5 1.5.8 3.3.8 5.2 0 2.2-.3 4-1 5.6s-1.7 3-2.8 4.2c-1.2 1.2-2.5 2-4 2.7-1.5.7-3.2.8-4.8.8-2.2 0-4-.3-5.6-1-1.5-.7-2.8-1.7-3.8-2.8-1-1.2-1.7-2.5-2.2-4.2-.8-1.8-1.1-3.4-.9-5.2zm36.9 1.1c.8 0 1.5-.2 2-.3.5-.3 1-.7 1.3-1.2.3-.5.5-1 .7-1.7.2-.7.2-1.3.2-2.2 0-1.8-.3-3.3-1.2-4.3s-2-1.5-3.5-1.5c-.5 0-1.2 0-1.7.2s-1 .3-1.3.8c-.3.3-.7.8-1 1.5-.2.7-.3 1.3-.3 2.3l.2 2.5c.2.8.5 1.5.8 2 .3.5.8 1 1.5 1.3s1.4.6 2.3.6zm-4.9 11.2c-.2.3-.3 1-.5 1.5-.2.7-.2 1.3-.2 2.3 0 .8.2 1.7.5 2.3.3.7.8 1.2 1.5 1.5s1.3.7 2 .8c.8.2 1.7.3 2.5.3 2 0 3.7-.3 4.7-1.2 1-.8 1.5-1.8 1.5-3.2l-.2-1.5c-.2-.5-.5-1-.8-1.3-.5-.3-1.2-.7-2-1-.8-.3-2-.3-3.5-.5h-1.8c-1.5.1-2.8 0-3.7 0zm-6.6 5.4c0-.8.2-1.5.3-2 .3-.7.7-1.2 1-1.7.3-.5.8-1 1.3-1.3l1.5-1c-.7-.2-1-.5-1.3-.8-.3-.3-.5-.7-.7-1-.2-.3-.2-.7-.3-1v-1.2s.2-.7.2-1.2c.2-.3.3-.8.7-1.3l.8-1.3s.7-.8 1.2-1.2c-1.3-.7-2.3-1.5-3-2.7-.7-1.2-1.2-2.5-1.2-4.2 0-1.5.3-2.8 1-4s1.5-2 2.5-2.7c1-.7 2.2-1.3 3.5-1.7s2.7-.5 4-.5c1.5 0 3 .2 4.3.5s2.3 1 3.3 1.7c.3-.3.8-.8 1.3-1 .7-.3 1.3-.3 2.3-.3h2.5v4.3h-4.2c.2.5.3.8.3 1.5.2.5.2 1 .2 1.7 0 1.5-.3 2.8-.8 3.8-.5 1.2-1.3 2-2.3 2.8-1 .7-2.2 1.3-3.3 1.7-1.3.3-2.7.5-4.2.5-1.3 0-2.7-.2-3.8-.3l-.2.8v.7c0 .5 0 1 .2 1.3.2.3.3.7.8.8.3.2 1 .3 1.8.3s2 .2 3.3.2c2.2 0 4 .2 5.5.7 1.5.3 2.5 1 3.5 1.7.8.7 1.5 1.5 1.8 2.3s.5 1.8.5 2.8c0 1.3-.3 2.5-.8 3.5s-1.3 2-2.3 2.8c-1 .8-2.3 1.3-4 1.8-1.5.5-3.3.7-5.5.7-1.7 0-3.2-.2-4.5-.3-1.3-.2-2.7-.7-3.7-1.2s-1.8-1.2-2.5-2c-.7-1-1-2-1-3zm31.9 1.5c.5 0 1 .2 1.5 0 .3 0 .8 0 1.5-.2.5-.2 1-.5 1.7-1 .5-.5 1-1.2 1.7-2 .5-.8 1-2 1.3-3.5h-1l-8.8-20.8-2-.5v-3.2h11.2v3.2l-2.5.5 4.7 13.1.8 3.3 1-3.3 4.2-13.1-3-.5v-3.2h10.3v3.2l-2.3.5-2.8 7.3-2 5.5-1.5 3.8-1 2.7-.7 1.7c-.2.3-.3.8-.3 1-.7 1.7-1.2 3-1.8 4.3-.7 1.3-1.3 2.3-2 3.2s-1.5 1.5-2.3 2c-.8.5-1.8.8-2.8.8-.7 0-1.3.2-2 0-.3 0-.7 0-1-.2-.3 0-.5-.2-.7-.2v-4.7c-.2.2.1.2.6.3z"/></g><g fill="#fff"><path d="M374.5 403.9v47c0 1.7.2 3 1.5 4 .7.3 1.3.5 2 .5.5 0 1.2 0 2-.8 1.2-.8 1.3-1.7 1.5-4.5v-46.2h4.7v47.4c-.2 1.5-.2 2.2-.7 3.5-1.5 4-6.1 4.5-7.5 4.5-2.7 0-6.3-1.3-7.5-4-.3-1-.5-2-.7-4.2v-47.2h4.7zm25.4.2l4.2 30.2 2.5 20.4c-.2-10.3-.5-20.4-.5-30.7v-20.1h4.2v54.7h-6.8c-2.5-16.9-4.8-33.9-7.1-51.2.2 7.1.3 14.1.3 21.4v29.7h-4.2v-54.7l7.4.3z"/><rect x="417.1" y="403.9" width="4.7" height="54.7"/><polygon points="441.3,404.1 441.3,407.7 435.7,407.7 435.7,458.9 430.9,458.9 430.9,407.7 425.4,407.7 425.4,404.1"/><path d="M454.8 412.4c0-1.5 0-2.8-1.2-3.8-.2-.2-1-.7-1.8-.7s-1.3.3-1.7.5c-1.2.8-1.2 2-1.3 3.5v18.3c0 1.5 0 2.8 1.3 4 .7.5 1.3.7 1.7.7.2 0 1-.2 1.5-.5 1.3-.8 1.3-2.2 1.5-3.8v-18.2zm-5.8 32.7v5.3c0 .5-.2 2 .3 3.3.5 1.7 1.8 1.8 2.7 1.8.5 0 1.2-.2 1.5-.3 1.2-.7 1.3-2 1.3-3.5v-15.6c-1.3 1.2-2.7 2-4.5 2-.8 0-3-.2-4.5-2.2-1.3-1.7-1.2-4-1.3-4.8v-19.3c.2-3.3.5-5.3 3.5-6.6 1.7-.8 3.3-1 4-1 2.8 0 4.7 1.2 5.3 1.7 1.7 1.3 1.8 3.3 2.2 5.5v40.2c-.2 2-.3 2.8-.7 3.7-.7 1.8-2.7 3.8-7 3.8-2 0-3.2-.5-4-.8-2.7-1.3-2.8-3.5-3.2-6.3v-7.1l4.4.2z"/><polygon points="493.5,403.9 493.5,407.7 485.2,407.7 485.2,428.2 492.7,428.2 492.7,431.8 485.2,431.8 485.2,458.4 480.4,458.4 480.4,403.9"/><rect x="498.3" y="403.9" width="4.7" height="54.7"/><polygon points="514.6,403.9 514.6,454.8 522.1,454.8 522.1,458.4 509.6,458.4 509.6,403.9"/><path d="M534.4 403.9c1.3 10.3 2.5 20.6 3.3 31.1.7 7.3 1.2 14.6 1.7 21.8l1.5-18.9c.5-5.5 1.2-11 1.8-16.4.7-5.8 1.3-11.6 2-17.6h8.5v54.8h-4.2v-53.3l-2 14-2.3 20.4c-.7 6.3-1.5 12.6-2.2 18.8h-6.3c-1-7.8-1.8-15.5-2.5-23.3l-1.8-16.8c-.5-4.2-1-8.6-1.5-13v53h-4.5v-54.8h8.5v.2zm30 39.7v7.6c0 1.5 0 2.7 1.3 3.5.7.5 1.5.5 1.7.5.5 0 1.2-.2 1.7-.5 1.3-.8 1.3-2.2 1.5-3.7v-9c-.2-3.7-.8-4.5-1.7-6.1l-6.8-11.6c-1.5-3.2-1.8-4.3-1.8-8 0-4-.3-5.6.2-7.6.5-2.2 2.3-5.5 7.6-5.5 4.2 0 6 2.3 6.5 4 .5 1.2.5 2.8.5 3.2v7.1h-4.7v-6.8c-.2-2-.3-3.5-2.3-3.5-.3 0-1 .2-1.7.5-1.3.8-1.3 2.2-1.3 5.3 0 6.3.2 6.8 1.8 10.3l7 12c1.2 2.5 1.3 3 1.5 5.6v10.8c0 .5.2 1.8-.5 3.2-1.5 4.2-6 4.3-7.3 4.3-.5 0-1 0-2.2-.2-.7-.2-4-1.2-5.2-4-.5-1.2-.5-2.5-.7-4v-7.5h4.9v.1z"/></g><path fill="#fff" d="M394.1 605.8c0 6.6-5.5 12.1-12.1 12.1s-12.1-5.5-12.1-12.1v-26.8c0-.7.5-1.2 1.2-1.2h1.3c.7 0 1.2.5 1.2 1.2v26.8c0 4.5 3.7 8.5 8.5 8.5s8.5-4 8.5-8.5v-26.8c0-.7.5-1.2 1.2-1.2h1.3c.7 0 1.2.5 1.2 1.2v26.8zm30.9 11.6c-.7 0-1-.2-1.3-1l-14.8-32.4c-.2-.2-.5-.2-.5.2v32.1c0 .7-.5 1.2-1.3 1.2h-1.2c-.7 0-1.3-.5-1.3-1.2v-37.3c0-.7.5-1.2 1.3-1.2h3.2c.7 0 1 .2 1.3 1l14.8 32.1c.2.2.5.2.5-.2v-31.9c0-.7.5-1.2 1.3-1.2h1.2c.7 0 1.3.5 1.3 1.2v37.2c0 .7-.5 1.2-1.3 1.2l-3.2.2zm19.5-1.1c0 .7-.5 1.2-1.2 1.2h-1.3c-.7 0-1.2-.5-1.2-1.2v-37.3c0-.7.5-1.2 1.2-1.2h1.3c.7 0 1.2.5 1.2 1.2v37.3zm20.9-34.3v34.2c0 .7-.5 1.2-1.2 1.2h-1.3c-.7 0-1.2-.5-1.2-1.2v-34.2c0-.3-.2-.5-.5-.5h-8.2c-.7 0-1.2-.5-1.2-1.2v-1.3c0-.7.5-1.2 1.2-1.2h21.4c.7 0 1.2.5 1.2 1.2v1.3c0 .7-.5 1.2-1.2 1.2h-8.3c-.5 0-.7.2-.7.5zm25.9-1c-5.2 0-7.3 4-8 8-.2 1-.2 2.2 0 3 .7 4 2.8 8 8 8 5 0 7.5-3.3 8-8 .2-.8.2-2 0-3-.3-3.6-2.6-8-8-8zm8.5 25.1c.2-1.3.3-3.8.2-5.2 0-.5-.5-.7-1-.3-1.2 1-3.5 2.8-7.6 2.8-6.3 0-11.1-5.2-11.6-11.6v-3c.3-6.3 5.2-11.5 11.6-11.5s11 5.2 11.8 11.8c.5 4.5.7 11.8 0 16.6-1 7.6-5 12-11.5 12-6 0-11.5-4.8-11.5-10.8 0-.7.5-1.2 1.2-1.2h1.2c.7 0 1.2.5 1.2 1.2 0 3.8 3.7 7.3 8 7.3 4.4.2 7.2-3.3 8-8.1zm33.9-24.6c-.3 0-.5.2-.5.5v31.2c0 .3.2.5.5.5h7.1c6.1 0 8.3-4.3 8.8-7.6.7-4.7.7-12.3 0-16.9-.7-4.2-3.5-7.6-8.8-7.6h-7.1zm7-3.6c7.5 0 11.8 5.2 12.6 11.3.7 4.5.7 12.3 0 16.9-1 7.3-5.8 11.3-12.6 11.3h-10.1c-.7 0-1.2-.5-1.2-1.2v-37.2c0-.7.5-1.2 1.2-1.2l10.1.1zm27.2 38.4c0 .7-.5 1.2-1.2 1.2h-1.3c-.7 0-1.2-.5-1.2-1.2v-37.3c0-.7.5-1.2 1.2-1.2h1.3c.7 0 1.2.5 1.2 1.2v37.3zm32.8-16.3c0-.3-.2-.5-.5-.5h-6.8c-.7 0-1.2-.5-1.2-1.2v-1.3c0-.7.5-1.2 1.2-1.2h10c.7 0 1.2.5 1.2 1.2v9.1c0 7.3-5.8 11.8-12.6 11.8s-11.6-4.5-12.6-11.8c-.7-4.7-.7-12.5 0-16.9.8-6.1 5.2-11.8 12.6-11.8s12.6 5.3 12.6 11.8v.2c0 .7-.5 1.2-1.2 1.2h-1.5c-.7 0-1.2-.5-1.2-1.2v-.2c0-4.7-3.5-8.1-8.8-8.1-5.3 0-8.1 4-8.8 8.1-.7 4.7-.7 12.3 0 16.9.5 3.3 2.7 8.1 8.8 8.1 6.1 0 9-4.8 9-8.1l-.2-6.1zm18.1 16.3c0 .7-.5 1.2-1.2 1.2h-1.3c-.7 0-1.2-.5-1.2-1.2v-37.3c0-.7.5-1.2 1.2-1.2h1.3c.7 0 1.2.5 1.2 1.2v37.3zm21.9-34.3v34.2c0 .7-.5 1.2-1.2 1.2h-1.5c-.7 0-1.2-.5-1.2-1.2v-34.2c0-.3-.2-.5-.5-.5h-8.3c-.7 0-1.2-.5-1.2-1.2v-1.3c0-.7.5-1.2 1.2-1.2h21.4c.7 0 1.2.5 1.2 1.2v1.3c0 .7-.5 1.2-1.2 1.2h-8.3c-.1 0-.4.2-.4.5zm30.2 20.1l-5.2-19.1c0-.2-.2-.3-.2-.3h-.2c-.2 0-.2.2-.2.3l-5.2 19.1c-.2.5.2.7.5.7h10c.4 0 .5-.2.5-.7zm1.4 4.9c-.2-.5-.5-.8-1-.8h-11.6c-.5 0-.8.3-1 .8l-2.8 9.5c-.2.5-.5.8-1 .8h-1.5c-.8 0-1.3-.7-1.2-1.2l10.8-37.6c.2-.5.5-.8 1.2-.8h2.8c.5 0 1 .3 1 .8l10.8 37.6c.2.5-.2 1.2-1.2 1.2h-1.5c-.5 0-1-.3-1-.8l-2.8-9.5zm17.3 6.3c0 .3.2.5.5.5h13.8c.7 0 1.2.5 1.2 1.2v1.3c0 .7-.5 1.2-1.2 1.2h-16.8c-.7 0-1.2-.5-1.2-1.2v-37.3c0-.7.5-1.2 1.2-1.2h1.3c.7 0 1.2.5 1.2 1.2v34.3z"/><g fill="#fff"><path d="M369.9 516.7v-17.1h6.6v16.9c0 4.8 2.5 7.5 6.5 7.5s6.5-2.5 6.5-7.1v-17.3h6.6v16.9c0 9.1-5.2 13.6-13.1 13.6-8 .1-13.1-4.6-13.1-13.4z"/><polygon points="407.8,499.6 413.9,499.6 428,518.1 428,499.6 434.5,499.6 434.5,529.5 428.9,529.5 414.4,510.6 414.4,529.5 407.8,529.5"/><rect x="447.1" y="499.6" width="6.6" height="30.1"/><polygon points="474.2,505.6 465.1,505.6 465.1,499.6 490,499.6 490,505.6 480.9,505.6 480.9,529.5 474.2,529.5"/><path d="M515.1 509.4c0-2.8-2-4.7-5.3-4.7s-5.2 1.8-5.2 4.5v.2c0 2.7 2 4.5 5.3 4.5 3.4 0 5.2-2 5.2-4.5zm-16.3 17.1l3.5-5c2.2 1.8 4 2.5 6.6 2.5 3.7 0 5.6-2.8 6.1-6.8-1.5 1.2-3.5 2-6.1 2-6.5 0-10.8-3.7-10.8-9.6s4.7-10.5 11.5-10.5c4 0 6.3 1 8.6 3.3 2.2 2.2 3.5 5.3 3.5 11.3 0 9.8-4.7 16.4-13.1 16.4-4.3-.1-7.3-1.4-9.8-3.6zm54.2-11.8c0-8.6 6.6-15.6 15.8-15.6 5.5 0 8.6 1.5 11.8 4.2l-4.2 5c-2.3-2-4.3-3-7.8-3-4.8 0-8.6 4.3-8.6 9.3v.2c0 5.5 3.8 9.5 9.1 9.5 2.3 0 4.5-.7 6.1-1.8v-4.3h-6.6v-5.6h13.1v13c-3.2 2.7-7.3 4.8-12.8 4.8-9.4-.4-15.9-6.8-15.9-15.7zm57.3 2.4l-4-9.8-4 9.8h8zm-7-17.8h6.1l13 30.2h-7l-2.8-6.8h-12.6l-2.8 6.8h-6.6l12.7-30.2z"/><polygon points="631.2,499.6 638.4,499.6 646.2,512.3 654.2,499.6 661.3,499.6 661.3,529.5 654.7,529.5 654.7,509.9 646.2,522.9 646,522.9 637.7,510.1 637.7,529.5 631.2,529.5"/><polygon points="675.3,499.6 698,499.6 698,505.4 681.9,505.4 681.9,511.6 696,511.6 696,517.4 681.9,517.4 681.9,523.7 698.2,523.7 698.2,529.5 675.3,529.5"/><path d="M709.7 525.2l3.8-4.7c2.7 2.2 5.5 3.7 9 3.7 2.7 0 4.3-1 4.3-2.8 0-1.7-1-2.5-6-3.8-6-1.5-10-3.2-10-9.1 0-5.5 4.3-9 10.5-9 4.3 0 8.1 1.3 11.1 3.8l-3.5 5c-2.7-1.8-5.3-3-7.8-3s-3.8 1.2-3.8 2.7c0 2 1.3 2.7 6.5 4 6.1 1.5 9.5 3.8 9.5 9v.2c0 6-4.5 9.3-11 9.3-4.3-.5-9-2.1-12.6-5.3z"/></g><polygon fill="#fff" points="919.8,507.9 899.9,507.9 899.9,502.9 891.6,509.6 899.9,516.2 899.9,511.3 919.8,511.3"/><path fill="#D6D6D6" d="M904.9 480.4c16.1 0 29.2 13.1 29.2 29.2s-13.1 29.2-29.2 29.2-29.2-13.1-29.2-29.2c-.1-16.1 13.1-29.2 29.2-29.2zm0 55.1c14.3 0 25.9-11.6 25.9-25.9s-11.6-25.9-25.9-25.9-25.9 11.6-25.9 25.9c0 14.3 11.6 25.9 25.9 25.9z"/><polygon fill="#fff" points="1001.3,509.6 993,502.9 993,507.9 973,507.9 973,511.3 993,511.3 993,516.2"/><path fill="#D6D6D6" d="M988 538.8c-16.1 0-29.2-13.1-29.2-29.2s13.1-29.2 29.2-29.2 29.2 13.1 29.2 29.2-13.1 29.2-29.2 29.2zm0-55.1c-14.3 0-25.9 11.6-25.9 25.9 0 14.3 11.6 25.9 25.9 25.9s25.9-11.6 25.9-25.9c0-14.3-11.6-25.9-25.9-25.9z"/><polygon fill="#fff" points="933,671.4 928.3,666.8 909.9,685.2 891.4,666.8 886.8,671.4 905.2,689.9 905.1,690 909.7,694.7 909.9,694.5 910,694.7 914.7,690 914.5,689.9"/><g fill="#7A7A7A"><rect x="1233.4" y="71.1" width="3.2" height="9"/><rect x="1200.6" y="71.1" width="3.2" height="9"/><path d="M1200.6 64.6h3.2c0-2.2 1.7-3.8 3.8-3.8v-3.2c-3.8.1-7 3.2-7 7z"/><rect x="1214.1" y="90.4" width="9" height="3.2"/><path d="M1229.6 90.4v3.2c3.8 0 7-3.2 7-7h-3.2c0 2.1-1.9 3.8-3.8 3.8zm-25.8-3.8h-3.2c0 3.8 3.2 7 7 7v-3.2c-2 0-3.8-1.7-3.8-3.8zm29.6-22h3.2c0-3.8-3.2-7-7-7v3.2c1.9 0 3.8 1.8 3.8 3.8z"/><rect x="1214.1" y="57.7" width="9" height="3.2"/><path d="M1226.1 75.3h-5.3v-7.8c0-.8-.7-1.5-1.5-1.5h-1.7c-.8 0-1.5.7-1.5 1.5v7.8h-5.2c-.8 0-1 .5-.5 1.2l7 8.3c.5.7 1.3.7 1.8 0l7-8.3c.9-.7.5-1.2-.1-1.2z"/></g><polygon fill="#fff" points="1496.4,87.1 1493.6,84.2 1486.4,91.4 1479.3,84.2 1476.5,87.1 1483.6,94.2 1476.5,101.4 1479.3,104.2 1486.4,97 1493.6,104.2 1496.4,101.4 1489.3,94.2"/><polygon fill="#BEBEBE" points="1517.2,171.8 1515,169.8 1509.7,175.1 1504.4,169.8 1502.2,171.8 1507.5,177.3 1502.2,182.6 1504.4,184.8 1509.7,179.3 1515,184.8 1517.2,182.6 1511.9,177.3"/><polygon fill="#fff" points="1086,83.2 1082,79.3 1071,90.1 1060.1,79.3 1056.1,83.2 1066.9,94.2 1056.1,105.2 1060.1,109.2 1071,98.4 1082,109.2 1086,105.2 1075.2,94.2"/><path fill="#fff" d="M1033.3 839.9c0 2.3-.7 4.2-2 5.3s-3.2 1.8-5.5 1.8h-.7c-2.3 0-4.2-.7-5.5-1.8-1.3-1.2-2-3-2-5.3v-17.9h3.7v18.8c0 .8.3 1.5 1 2.2.7.7 1.5.8 2.5.8h1.5c1 0 1.8-.3 2.5-.8.7-.7 1-1.3 1-2.2v-18.8h3.7l-.2 17.9zm22.3 7h-5.8l-6.3-21.9v21.9h-3.3v-24.9h5.8l6.3 21.9v-21.9h3.3v24.9zm14.6 0h-9.3v-3h2.8v-18.9h-2.8v-3h9.3v3h-2.8v18.9h2.8v3zm18.8-21.8h-6.3v21.8h-3.7v-21.8h-6.3v-3.1h16.3v3.1zm3.3 3.8c0-2.3.7-4 1.8-5.2 1.2-1.2 2.8-1.8 4.7-1.8h1c1.8 0 3.5.7 4.7 1.8 1.2 1.2 1.8 3 1.8 5.2v11c0 4.7-2.5 7-7.3 7h-4.3v-3.2h4.7c1 0 1.8-.3 2.5-.8.7-.7 1-1.3 1-2.2v-.7h-3.7c-2.3 0-4.2-.5-5.2-1.5-1.2-1-1.7-2.7-1.7-5v-4.6zm6.5 8h4v-8.8c0-.8-.3-1.7-.8-2.2-.5-.7-1.3-.8-2.3-.8h-.7c-1 0-1.8.3-2.3.8-.5.7-.8 1.3-.8 2.2v6.1c-.1 1.9.9 2.7 2.9 2.7zm38.9-14.9l-6 24.9h-4.8l-5.6-24.9h3.7l4.5 21.3 4.8-21.3h3.4zm8.4 16.7v8.1h-3.7v-24.8h7.3c4.7 0 7.1 2.2 7.1 6.5v4c0 3.2-1.2 5-3.7 5.8l5.6 8.8h-4l-5.3-8.1-3.3-.3zm7.4-5.9v-4.7c0-1-.2-1.8-.7-2.3-.5-.5-1.2-.7-2.3-.7h-4.3v10.6h4.3c1 0 1.8-.2 2.3-.7.3-.4.7-1.2.7-2.2z"/><path fill="#fff" d="M977.2 938.3c0 3.8-1 6.8-3.2 8.8-2.2 2-5.2 3-9.1 3h-1c-4 0-7-1-9.1-3-2.2-2-3.2-4.8-3.2-8.8v-29.9h6v31.2c0 1.5.5 2.7 1.5 3.7s2.5 1.5 4.2 1.5h2.3c1.7 0 3-.5 4.2-1.5 1-1 1.5-2.2 1.5-3.7v-31.2h6v29.9zm37 11.6h-9.8l-10.5-36.4v36.4h-5.5v-41.5h9.8l10.6 36.4v-36.4h5.5v41.5h-.1zm24.4 0h-15.6v-5h4.8v-31.6h-4.8v-5h15.6v5h-4.8v31.6h4.8v5zm31.3-36.4h-10.5v36.4h-6v-36.4h-10.6v-5.2h27.1v5.2zm5.5 6.5c0-3.8 1-6.6 3.2-8.6 2-2 4.7-3 7.8-3h1.7c3.2 0 5.6 1 7.8 3 2 2 3.2 4.8 3.2 8.6v18.3c0 7.8-4 11.6-12.1 11.6h-7.5v-5.2h7.8c1.7 0 3-.5 4.2-1.5 1-1 1.5-2.2 1.5-3.7v-1h-6c-4 0-6.8-.8-8.6-2.7-1.8-1.7-2.8-4.5-2.8-8.3v-7.5h-.2zm10.8 13.5h6.6v-14.6c0-1.5-.5-2.7-1.5-3.7s-2.3-1.5-4-1.5h-1c-1.7 0-3 .5-4 1.5s-1.5 2.2-1.5 3.7v10.1c.4 2.8 2 4.5 5.4 4.5zm64.8-25.1l-10.1 41.5h-8.1l-9.5-41.5h6l7.5 35.6 8.1-35.6h6.1zm14.1 28v13.5h-6v-41.5h12.3c7.8 0 11.8 3.5 11.8 10.6v6.6c0 5.2-2 8.3-6.1 9.6l9.5 14.6h-6.5l-8.8-13.5h-6.2zm12.1-10.1v-7.8c0-1.7-.3-3-1.2-3.8-.8-.8-2-1.2-3.8-1.2h-7.1v17.8h7.1c1.7 0 3-.3 3.8-1.2.9-.8 1.2-2 1.2-3.8z"/><path fill="#7A7A7A" d="M402.1 961.5h-.5c-1.7-.2-3-1-3.7-2.3-.5-1.2-.3-2.5.5-3.8l8.3-13.5c1.2-2.2 1.2-3 .8-3.7-.3-.5-.8-.5-1.2-.5h-2c-6 0-11.3-2.2-15.6-6.5-4.7-4.5-7-10.1-7.3-16.6-.3-7 1.8-13.1 6.5-18.3 4.5-5.2 10.5-7.8 17.4-8h1.2c7.5 0 13.6 2.7 18.3 8.1 4.2 4.7 6.5 9.6 6.5 15.1 0 6.3-1.8 12.8-6.3 19.4l-16.6 26.6c-2.1 3.7-5.1 4-6.3 4m4.3-63.6c-1.2 0-2.3.2-3.2.3 0 0-5 1.2-7.8 4.3-2.7 3.2-4 6.8-3.8 10.8.2 4.2 1.7 7.8 4.5 10.8 2.8 3 6.1 4.5 10.1 4.5h.5c4.2-.2 7.6-1.8 10.3-4.8 2.8-3 4.2-6.6 4-10.8-.2-4.3-1.7-8-4.3-11-2.8-3-7.8-4-8.3-4-.5-.1-1.3-.1-2-.1"/><path fill="#BEBEBE" d="M403.4 1022.3h-.3c-1.2-.2-2-.7-2.5-1.5-.3-.8-.2-1.7.3-2.5l5.6-9c.8-1.5.8-2 .7-2.3s-.5-.3-.8-.3h-1.3c-4 0-7.5-1.5-10.5-4.3-3-3-4.7-6.8-4.8-11.1-.2-4.7 1.3-8.8 4.3-12.1 3-3.3 7-5.2 11.6-5.3h.7c5 0 9 1.8 12.3 5.3 2.8 3.2 4.3 6.5 4.3 10.1 0 4.3-1.2 8.5-4.2 13l-11.1 17.6c-1.4 2.3-3.4 2.4-4.3 2.4m3-42.3c-.8 0-1.5 0-2.2.2 0 0-3.3.8-5.2 2.8-1.8 2-2.7 4.5-2.5 7.3.2 2.8 1.2 5.2 3 7.1 1.8 2 4.2 3 6.6 3h.3c2.8-.2 5.2-1.2 7-3.2 1.8-2 2.7-4.5 2.7-7.1-.2-2.8-1.2-5.3-3-7.3s-5.2-2.7-5.5-2.7c-.2-.1-.7-.1-1.2-.1"/><polygon points="1523.1,266.2 1520.2,263.4 1509.4,274 1498.7,263.4 1495.7,266.2 1506.5,277 1495.7,287.6 1498.7,290.6 1509.4,279.8 1520.2,290.6 1523.1,287.6 1512.3,277"/><g fill="#fff"><path d="M482.2 934.9l-6.6 6.6c-1.5 1.5-3.8 1.5-5.2 0l-7.3-7.3c-1.5-1.5-1.5-3.8 0-5.2l7-7c1.7-1.5 3.8.5 3.8.5l-8.6 8.6c-.2.2-.2.5 0 .7l7.3 7.3c.2.2.5.2.7 0l8.5-8.5c.1.2 2.2 2.4.4 4.3zm14-14.1l-6.3 6.3c-2.3 2.3-4.5 0-4.5 0l8.5-8.5c.2-.2.2-.5 0-.7l-7.3-7.3c-.2-.2-.5-.2-.7 0l-8.5 8.5s-2.2-2.2-.2-4.2l6.5-6.5c1.5-1.5 3.8-1.5 5.2 0l7.3 7.3c1.4 1.5 1.4 3.8 0 5.1z"/><rect x="472.2" y="923.3" transform="matrix(-.707 .707 -.707 -.707 1472.571 1239.857)" width="14.6" height="3.2"/></g><path d="M555.3 934.9l-6.6 6.6c-1.5 1.5-3.8 1.5-5.2 0l-7.3-7.3c-1.5-1.5-1.5-3.8 0-5.2l7-7c1.7-1.5 3.8.5 3.8.5l-8.6 8.6c-.2.2-.2.5 0 .7l7.3 7.3c.2.2.5.2.7 0l8.5-8.5c.1.2 2.2 2.4.4 4.3zm14-14.1l-6.3 6.3c-2.3 2.3-4.5 0-4.5 0l8.5-8.5c.2-.2.2-.5 0-.7l-7.3-7.3c-.2-.2-.5-.2-.7 0l-8.5 8.5s-2.2-2.2-.2-4.2l6.5-6.5c1.5-1.5 3.8-1.5 5.2 0l7.3 7.3c1.5 1.5 1.5 3.8 0 5.1z"/><rect x="545.3" y="923.3" transform="matrix(-.707 .707 -.707 -.707 1597.387 1188.163)" width="14.6" height="3.2"/><path fill="#fff" d="M901.4 98.9c0-4.5 3.7-8.1 8.1-8.1 4.5 0 8.1 3.7 8.1 8.1s-3.7 8.1-8.1 8.1c-4.4 0-8.1-3.7-8.1-8.1zm27.6 16.6l-9.5-9.5c1-1.7 2.2-5 2.2-7 0-6.6-5.5-12.1-12.1-12.1s-12.1 5.5-12.1 12.1 5.5 12.1 12.1 12.1c2 0 5.3-1.5 7-2.3l9.6 9.6 2.8-2.9z"/><path fill="#fff" d="M1152.3 254.9c.5 1.3.8 2.5 1 3.2v4h1.5v-4l1.8-6v-.2h-1.5l-1 3.8-1.2-3.8h-1.7v.2c.4 1 .8 1.9 1.1 2.8zm10.8 7.3c.5 0 1-.3 1.7-.8v.8h1.3v-7.6h-1.3v5.6c-.3.5-.7.7-.8.7-.2 0-.3-.2-.3-.3v-6h-1.3v6c0 .5 0 .8.2 1.2-.3.2 0 .4.5.4zm-4.3 0c.7 0 1.2-.3 1.7-.8.3-.3.5-1 .5-1.7v-2.8c0-.8-.2-1.3-.5-1.7-.3-.5-1-.8-1.7-.8s-1.2.3-1.7.8c-.3.3-.5 1-.5 1.8v2.8c0 .8.2 1.3.5 1.7.5.5 1 .7 1.7.7zm-.7-5.3c0-.7.2-1 .7-1 .5 0 .7.3.7 1v3c0 .7-.2 1-.7 1s-.7-.3-.7-1v-3zm12.1 8.8c-.3-1.2-1.3-2-2.5-2.2-2.8-.3-5.6-.3-8.6-.3-2.8 0-5.8 0-8.6.3-1.2.2-2.2 1-2.5 2.2-.3 1.7-.3 3.5-.3 5.2s0 3.5.3 5.2c.3 1.2 1.3 2 2.5 2.2 2.8.3 5.6.3 8.6.3 2.8 0 5.8 0 8.6-.3 1.2-.2 2.2-1 2.5-2.2.3-1.7.3-3.5.3-5.2s.1-3.6-.3-5.2zm-16.1 1.5h-1.7v8.5h-1.5v-8.5h-1.7v-1.3h4.8v1.3zm4.3 8.4h-1.3v-.8c-.5.7-1 .8-1.7.8-.5 0-.8-.2-.8-.5 0-.2-.2-.5-.2-1.2v-5.8h1.3v5.8c0 .2.2.3.3.3.3 0 .5-.2.8-.7v-5.5h1.3l.3 7.6zm5.2-2.1c0 .7 0 1.2-.2 1.5-.2.5-.5.8-1.2.8-.5 0-1-.3-1.5-.8v.7h-1.3v-9.8h1.3v3.2c.5-.5 1-.8 1.5-.8s1 .3 1.2.8c.2.3.2.8.2 1.5v2.9zm5.3-1.2h-2.8v1.3c0 .7.2 1 .7 1 .3 0 .5-.2.7-.5v-.8h1.5v1c0 .3-.2.5-.3.8-.3.5-1 .8-1.7.8s-1.3-.3-1.7-.8c-.3-.3-.5-1-.5-1.7v-2.4c0-.8.2-1.3.5-1.7.3-.5 1-.8 1.7-.8s1.2.3 1.7.8c.3.3.5 1 .5 1.7l-.3 1.3zm-7.3-2.8c-.2 0-.5.2-.7.3v4.5c.2.2.5.3.7.3.3 0 .7-.3.7-1v-3.2c0-.6-.2-.9-.7-.9zm5.1 0c-.5 0-.7.3-.7 1v.7h1.3v-.7c.1-.7-.1-1-.6-1z"/><path fill="#fff" d="M1234.5 254.9c0 1.7-1.2 2.8-3.2 2.8-1.8 0-3.2-1.3-3.2-2.8 0-1.7 1.3-2.8 3.2-2.8 1.9 0 3.2 1.1 3.2 2.8zm-6.3 23.7v-18.6h6v18.6h-6zm9.7-12.6c0-2.3 0-4.3-.2-6h5.2l.3 2.7h.2c.8-1.2 2.7-3 6-3 4 0 7 2.5 7 8v11h-6v-10.3c0-2.3-.8-4-3-4-1.7 0-2.7 1.2-3.2 2.2-.2.3-.2.8-.2 1.5v10.6h-6v-12.7h-.1z"/><path fill="#fff" d="M1333.6 265.3c0 4.5-3.8 8-8.3 8-4.7 0-8.3-3.7-8.3-8 0-.5 0-1 .2-1.5h-5.6v10.6c0 2.3 2 4.2 4.3 4.2h18.9c2.3 0 4.3-1.8 4.3-4.2v-10.6h-5.6c.1.6.1 1 .1 1.5zm1.1-13.2h-18.9c-2.3 0-4.3 1.8-4.3 4.2v4.5h7c1.5-2 4-3.3 6.8-3.3s5.3 1.3 6.8 3.3h7v-4.5c0-2.4-1.9-4.2-4.4-4.2zm2.2 5.1c0 .3-.3.7-.8.7h-2.3c-.5 0-.8-.3-.8-.7v-2.3c0-.3.3-.7.8-.7h2.3c.5 0 .8.3.8.7v2.3zm-6.5 8.1c0-2.7-2.3-5-5.2-5s-5.2 2.2-5.2 5 2.3 5 5.2 5 5.2-2.3 5.2-5z"/><path fill="#797979" d="M1152.3 180.3c.5 1.3.8 2.5 1 3.2v4h1.5v-4l1.8-6v-.2h-1.5l-1 3.8-1.2-3.8h-1.7v.2c.4 1.1.8 1.9 1.1 2.8zm10.8 7.3c.5 0 1-.3 1.7-.8v.8h1.3v-7.6h-1.3v5.6c-.3.5-.7.7-.8.7-.2 0-.3-.2-.3-.3v-6h-1.3v6c0 .5 0 .8.2 1.2-.3.2 0 .4.5.4zm-4.3 0c.7 0 1.2-.3 1.7-.8.3-.3.5-1 .5-1.7v-2.8c0-.8-.2-1.3-.5-1.7-.3-.5-1-.8-1.7-.8s-1.2.3-1.7.8c-.3.3-.5 1-.5 1.8v2.8c0 .8.2 1.3.5 1.7.5.5 1 .7 1.7.7zm-.7-5.3c0-.7.2-1 .7-1 .5 0 .7.3.7 1v3c0 .7-.2 1-.7 1s-.7-.3-.7-1v-3zm12.1 8.8c-.3-1.2-1.3-2-2.5-2.2-2.8-.3-5.6-.3-8.6-.3-2.8 0-5.8 0-8.6.3-1.2.2-2.2 1-2.5 2.2-.3 1.7-.3 3.5-.3 5.2 0 1.7 0 3.5.3 5.2.3 1.2 1.3 2 2.5 2.2 2.8.3 5.6.3 8.6.3 2.8 0 5.8 0 8.6-.3 1.2-.2 2.2-1 2.5-2.2.3-1.7.3-3.5.3-5.2.1-1.7.1-3.6-.3-5.2zm-16.1 1.5h-1.7v8.5h-1.5v-8.5h-1.7v-1.3h4.8v1.3zm4.3 8.4h-1.3v-.8c-.5.7-1 .8-1.7.8-.5 0-.8-.2-.8-.5 0-.2-.2-.5-.2-1.2v-5.8h1.3v5.8c0 .2.2.3.3.3.3 0 .5-.2.8-.7v-5.6h1.3l.3 7.7zm5.2-2.1c0 .7 0 1.2-.2 1.5-.2.5-.5.8-1.2.8-.5 0-1-.3-1.5-.8v.7h-1.3v-9.8h1.3v3.2c.5-.5 1-.8 1.5-.8s1 .3 1.2.8c.2.3.2.8.2 1.5v2.9zm5.3-1.2h-2.8v1.3c0 .7.2 1 .7 1 .3 0 .5-.2.7-.5v-.8h1.5v1c0 .3-.2.5-.3.8-.3.5-1 .8-1.7.8s-1.3-.3-1.7-.8c-.3-.3-.5-1-.5-1.7v-2.5c0-.8.2-1.3.5-1.7.3-.5 1-.8 1.7-.8s1.2.3 1.7.8c.3.3.5 1 .5 1.7l-.3 1.4zm-7.3-2.8c-.2 0-.5.2-.7.3v4.5c.2.2.5.3.7.3.3 0 .7-.3.7-1v-3.2c0-.6-.2-.9-.7-.9zm5.1 0c-.5 0-.7.3-.7 1v.7h1.3v-.7c.1-.7-.1-1-.6-1z"/><path fill="#797979" d="M1234.5 180.3c0 1.7-1.2 2.8-3.2 2.8-1.8 0-3.2-1.3-3.2-2.8 0-1.7 1.3-2.8 3.2-2.8 1.9 0 3.2 1.1 3.2 2.8zm-6.3 23.7v-18.6h6v18.6h-6zm9.7-12.6c0-2.3 0-4.3-.2-6h5.2l.3 2.7h.2c.8-1.2 2.7-3 6-3 4 0 7 2.5 7 8v11h-6v-10.3c0-2.3-.8-4-3-4-1.7 0-2.7 1.2-3.2 2.2-.2.3-.2.8-.2 1.5v10.5h-6v-12.6h-.1z"/><path fill="#797979" d="M1333.6 190.7c0 4.5-3.8 8-8.3 8-4.7 0-8.3-3.7-8.3-8 0-.5 0-1 .2-1.5h-5.6v10.6c0 2.3 2 4.2 4.3 4.2h18.9c2.3 0 4.3-1.8 4.3-4.2v-10.6h-5.6c.1.5.1 1 .1 1.5zm1.1-13.2h-18.9c-2.3 0-4.3 1.8-4.3 4.2v4.5h7c1.5-2 4-3.3 6.8-3.3s5.3 1.3 6.8 3.3h7v-4.5c0-2.4-1.9-4.2-4.4-4.2zm2.2 5.1c0 .3-.3.7-.8.7h-2.3c-.5 0-.8-.3-.8-.7v-2.3c0-.3.3-.7.8-.7h2.3c.5 0 .8.3.8.7v2.3zm-6.5 8.1c0-2.7-2.3-5-5.2-5s-5.2 2.2-5.2 5 2.3 5 5.2 5 5.2-2.1 5.2-5z"/><g fill="#fff"><path d="M1215.6 822.1v13c0 1.8.3 3.2 1 4.1 1 1.3 2.2 1.9 4 1.9 1.7 0 3-.6 4-1.9.6-.9 1-2.2 1-4.1v-13h3.4v14c0 2.2-.7 4.2-2.2 5.7-1.6 1.6-3.7 2.5-6.1 2.5-2.5 0-4.5-.9-6.1-2.5-1.5-1.5-2.2-3.4-2.2-5.7v-14h3.2zM1234.1 843.8v-23.2l16.3 16.5v-15.1h3.4v23.1l-16.3-16.5v15.2h-3.4zM1262.7 822.1v21.7h-3.4v-21.7h3.4zM1274.2 825.1v18.7h-3.4v-18.7h-5.1v-3.1h13.7v3.1h-5.2zM1286.4 844.5l-2.5-1.8 5.3-7c-.3 0-.5.1-.7.1h-.5c-1.8 0-3.4-.6-4.7-2-1.3-1.3-1.9-2.9-1.9-4.8 0-2 .7-3.7 2.2-5.1 1.5-1.4 3.2-2.1 5.2-2.1s3.8.7 5.3 2.1c1.5 1.4 2.2 3.1 2.2 4.9 0 1.7-.7 3.5-2.2 5.4l-7.7 10.3zm-1.9-15.8c0 1.2.4 2.1 1.3 3 .9.9 1.8 1.2 3 1.2s2.1-.4 3-1.2c.9-.9 1.3-1.8 1.3-2.9 0-1.2-.4-2.1-1.3-2.9-.9-.7-1.8-1.2-3-1.2s-2.1.4-3 1.2-1.3 1.7-1.3 2.8zM1313.3 834.9v8.9h-3.4v-21.7h3.8c1.9 0 3.3.1 4.3.4 1 .2 1.8.7 2.6 1.4 1.3 1.2 1.9 2.8 1.9 4.6 0 2-.6 3.5-2 4.7-1.4 1.2-3.2 1.7-5.6 1.7h-1.6zm0-3h1.3c3.1 0 4.7-1.2 4.7-3.5 0-2.2-1.6-3.3-4.8-3.3h-1.1v6.8h-.1zM1333.4 834.5l6.9 9.3h-4.2l-6.4-8.9h-.6v8.9h-3.4v-21.7h4c3 0 5.1.5 6.4 1.6 1.5 1.2 2.1 2.8 2.1 4.8 0 1.5-.4 2.9-1.4 4-.6 1-1.9 1.7-3.4 2zm-4.1-2.5h1.1c3.2 0 4.8-1.2 4.8-3.5 0-2.2-1.6-3.3-4.7-3.3h-1.2v6.8zM1356.2 825.1h-9v5.2h8.8v3.1h-8.8v7.3h9v3.1h-12.4v-21.7h12.4v3zM1373.3 825.3l-2.8 1.6c-.5-.9-1-1.4-1.5-1.7-.5-.3-1.1-.4-1.9-.4-1 0-1.7.2-2.3.7-.6.5-1 1.2-1 1.9 0 1.1.9 1.9 2.5 2.6l2.2.9c1.8.7 3.1 1.6 4 2.6.9 1.1 1.3 2.2 1.3 3.7 0 2-.6 3.6-2 4.9-1.4 1.3-3.1 1.9-5.1 1.9-1.9 0-3.5-.5-4.8-1.7-1.3-1.1-2-2.7-2.3-4.7l3.4-.7c.1 1.3.4 2.1.9 2.7.7 1 1.7 1.4 3.1 1.4 1.1 0 1.9-.3 2.7-1.1.7-.6 1.1-1.6 1.1-2.6 0-.4-.1-.9-.2-1.2-.1-.3-.3-.6-.5-1-.2-.3-.6-.5-1-.9-.4-.2-.9-.5-1.5-.7l-2.1-.9c-3.1-1.3-4.6-3.1-4.6-5.6 0-1.6.6-3 1.9-4.1 1.3-1.1 2.9-1.7 4.8-1.7 2.2.5 4.2 1.6 5.7 4.1zM1390.3 825.1h-9v5.2h8.8v3.1h-8.8v7.3h9v3.1h-12.3v-21.7h12.4v3zM1394.7 843.8v-23.2l16.3 16.5v-15.1h3.4v23.1l-16.3-16.5v15.2h-3.4zM1426 825.1v18.7h-3.4v-18.7h-5.1v-3.1h13.7v3.1h-5.2zM1446.8 825.3l-2.8 1.6c-.5-.9-1-1.4-1.5-1.7s-1.1-.4-1.9-.4c-1 0-1.7.2-2.3.7-.6.5-1 1.2-1 1.9 0 1.1.9 1.9 2.5 2.6l2.2.9c1.8.7 3.1 1.6 4 2.6.9 1.1 1.3 2.2 1.3 3.7 0 2-.6 3.6-2 4.9-1.4 1.3-3.1 1.9-5.1 1.9-1.9 0-3.5-.5-4.8-1.7-1.3-1.1-2-2.7-2.3-4.7l3.4-.7c.1 1.3.4 2.1.9 2.7.7 1 1.7 1.4 3.1 1.4 1.1 0 1.9-.3 2.7-1.1.7-.6 1.1-1.6 1.1-2.6 0-.4-.1-.9-.2-1.2-.1-.3-.3-.6-.5-1-.2-.3-.6-.5-1-.9-.4-.2-.9-.5-1.5-.7l-2.1-.9c-3.1-1.3-4.6-3.1-4.6-5.6 0-1.6.6-3 1.9-4.1 1.3-1.1 2.9-1.7 4.8-1.7 2.2.5 4.2 1.6 5.7 4.1z"/></g><g fill="#fff"><path d="M1217.5 908.5v20.3c0 2.8.5 5 1.5 6.3 1.5 2 3.5 3 6.1 3s4.7-1 6.1-3c1-1.3 1.5-3.5 1.5-6.3v-20.3h5.3v21.8c0 3.5-1.2 6.5-3.5 8.8-2.5 2.5-5.8 3.8-9.5 3.8-3.8 0-7-1.3-9.5-3.8-2.3-2.3-3.5-5.3-3.5-8.8v-21.8h5.5zM1246.4 942.3v-36.1l25.4 25.8v-23.4h5.3v35.9l-25.4-25.8v23.6h-5.3zM1290.7 908.5v33.7h-5.3v-33.7h5.3zM1308.7 913.2v29.1h-5.3v-29.1h-8v-4.8h21.3v4.8h-8zM1327.6 943.4l-3.8-2.8 8.3-11c-.5 0-.8.2-1.2.2h-.8c-2.8 0-5.3-1-7.3-3.2-2-2-3-4.5-3-7.5 0-3.2 1.2-5.8 3.5-8s5-3.3 8.1-3.3 6 1.2 8.3 3.3c2.3 2.2 3.5 4.8 3.5 7.6 0 2.7-1.2 5.5-3.5 8.5l-12.1 16.2zm-2.8-24.6c0 1.8.7 3.3 2 4.7 1.3 1.3 2.8 1.8 4.7 1.8s3.3-.7 4.7-1.8c1.3-1.3 2-2.8 2-4.5 0-1.8-.7-3.3-2-4.5-1.3-1.2-2.8-1.8-4.7-1.8s-3.3.7-4.7 1.8c-1.3 1.2-2 2.7-2 4.3zM1369.5 928.5v13.8h-5.3v-33.7h6c3 0 5.2.2 6.6.7 1.5.3 2.8 1.2 4 2.2 2 1.8 3 4.3 3 7.1 0 3.2-1 5.5-3.2 7.3-2.2 1.8-5 2.7-8.6 2.7h-2.5zm0-4.7h2c4.8 0 7.3-1.8 7.3-5.5 0-3.5-2.5-5.2-7.5-5.2h-1.7v10.6h-.1zM1400.9 927.8l10.8 14.5h-6.5l-10-13.8h-1v13.8h-5.3v-33.7h6.1c4.7 0 8 .8 10 2.5 2.3 1.8 3.3 4.3 3.3 7.5 0 2.3-.7 4.5-2.2 6.1-.9 1.6-2.9 2.6-5.2 3.1zm-6.5-3.8h1.7c5 0 7.5-1.8 7.5-5.5 0-3.5-2.5-5.2-7.3-5.2h-1.8v10.7zM1436.3 913.2h-14v8.1h13.6v4.8h-13.6v11.3h14v4.8h-19.3v-33.7h19.3v4.7zM1462.9 913.5l-4.3 2.5c-.8-1.3-1.5-2.2-2.3-2.7-.8-.5-1.7-.7-3-.7-1.5 0-2.7.3-3.7 1.2-1 .8-1.5 1.8-1.5 3 0 1.7 1.3 3 3.8 4l3.5 1.3c2.8 1.2 4.8 2.5 6.1 4 1.3 1.7 2 3.5 2 5.8 0 3.2-1 5.6-3.2 7.6s-4.8 3-8 3c-3 0-5.5-.8-7.5-2.7-2-1.7-3.2-4.2-3.7-7.3l5.3-1.2c.2 2 .7 3.3 1.3 4.2 1.2 1.5 2.7 2.2 4.8 2.2 1.7 0 3-.5 4.2-1.7 1.2-1 1.7-2.5 1.7-4 0-.7-.2-1.3-.3-1.8-.2-.5-.5-1-.8-1.5-.3-.5-1-.8-1.5-1.3-.7-.3-1.3-.8-2.3-1.2l-3.3-1.3c-4.8-2-7.1-4.8-7.1-8.6 0-2.5 1-4.7 3-6.3 2-1.7 4.5-2.7 7.5-2.7 4 .6 7 2.4 9.3 6.2zM1489.5 913.2h-14v8.1h13.6v4.8h-13.6v11.3h14v4.8h-19.3v-33.7h19.3v4.7zM1496.3 942.3v-36.1l25.4 25.8v-23.4h5.3v35.9l-25.4-25.8v23.6h-5.3zM1545 913.2v29.1h-5.3v-29.1h-8v-4.8h21.3v4.8h-8zM1577.4 913.5l-4.3 2.5c-.8-1.3-1.5-2.2-2.3-2.7-.8-.5-1.7-.7-3-.7-1.5 0-2.7.3-3.7 1.2-1 .8-1.5 1.8-1.5 3 0 1.7 1.3 3 3.8 4l3.5 1.3c2.8 1.2 4.8 2.5 6.1 4 1.3 1.7 2 3.5 2 5.8 0 3.2-1 5.6-3.2 7.6s-4.8 3-8 3c-3 0-5.5-.8-7.5-2.7-2-1.7-3.2-4.2-3.7-7.3l5.3-1.2c.2 2 .7 3.3 1.3 4.2 1.2 1.5 2.7 2.2 4.8 2.2 1.7 0 3-.5 4.2-1.7 1.2-1 1.7-2.5 1.7-4 0-.7-.2-1.3-.3-1.8-.2-.5-.5-1-.8-1.5-.3-.5-1-.8-1.5-1.3-.7-.3-1.3-.8-2.3-1.2l-3.3-1.3c-4.8-2-7.1-4.8-7.1-8.6 0-2.5 1-4.7 3-6.3 2-1.7 4.5-2.7 7.5-2.7 3.8.6 6.9 2.4 9.3 6.2z"/></g></svg>